<?xml version="1.0" standalone="no"?>
<!DOCTYPE svg PUBLIC "-//W3C//DTD SVG 20010904//EN"
 "http://www.w3.org/TR/2001/REC-SVG-20010904/DTD/svg10.dtd">
<svg version="1.0" xmlns="http://www.w3.org/2000/svg"
 width="256.000000pt" height="256.000000pt" viewBox="0 0 256.000000 256.000000"
 preserveAspectRatio="xMidYMid meet">

<g transform="translate(0.000000,256.000000) scale(0.100000,-0.100000)"
fill="#000000" stroke="none">
<path d="M1070 2184 c-260 -55 -443 -263 -490 -557 -15 -92 -8 -244 16 -331
69 -257 274 -417 571 -445 207 -19 563 36 563 87 0 29 -42 237 -50 245 -4 4
-54 -2 -111 -13 -143 -29 -319 -30 -407 -2 -111 36 -186 106 -199 186 l-6 36
416 0 c319 0 418 3 423 12 5 7 8 74 7 148 0 152 -19 242 -74 358 -41 86 -149
196 -232 235 -114 55 -287 72 -427 41z m261 -289 c52 -36 90 -106 97 -175 l5
-50 -241 0 -241 0 5 33 c17 88 80 176 149 209 30 14 58 18 112 16 61 -3 78 -8
114 -33z"/>
</g>
</svg>
